<mxfile host="app.diagrams.net" modified="2023-11-03T12:18:47.405Z" agent="Mozilla/5.0 (Macintosh; Intel Mac OS X 10_15_7) AppleWebKit/605.1.15 (KHTML, like Gecko) Version/16.5.1 Safari/605.1.15" version="22.0.8" etag="MpdGYbdq1GtcgkKSgbQ2" type="github">
  <diagram name="Page-1" id="Dii1ZpaM9mdHrlqd65UR">
    <mxGraphModel>
      <root>
        <mxCell id="0" />
        <mxCell id="1" parent="0" />
      </root>
    </mxGraphModel>
  </diagram>
</mxfile>
